<svg width="458" height="122" viewBox="0 0 458 122" fill="none"
    xmlns="http://www.w3.org/2000/svg">
    <g clip-path="url(#clip0_1208_29)">
        <path
            d="M85.0061 15.9346V102.513H65.6843V67.3505H27.4655V102.513H8.1438V15.9346H27.4655V50.2473H65.6843V15.9346H85.0061ZM126.852 104C120.977 104 115.74 102.584 111.14 99.7511C106.539 96.9891 102.965 93.129 100.417 88.1718C97.8692 83.2147 96.5953 77.6195 96.5953 71.3873C96.5953 65.1551 97.8692 59.5602 100.417 54.6028C102.965 49.6453 106.539 45.7856 111.14 43.0235C115.74 40.1907 120.977 38.7743 126.852 38.7743C134.85 38.7743 140.795 41.3946 144.687 46.6354V40.2615H163.584V102.513H144.687V96.1392C140.795 101.38 134.85 104 126.852 104ZM129.824 87.8532C134.425 87.8532 138.105 86.3302 140.865 83.2852C143.626 80.1691 145.006 76.2031 145.006 71.3873C145.006 66.5715 143.626 62.6409 140.865 59.5956C138.105 56.4795 134.425 54.9215 129.824 54.9215C125.366 54.9215 121.792 56.4795 119.102 59.5956C116.412 62.6409 115.068 66.5715 115.068 71.3873C115.068 76.2031 116.412 80.1691 119.102 83.2852C121.792 86.3302 125.366 87.8532 129.824 87.8532ZM177.848 40.2615H196.745V46.6354C200.637 41.3946 206.441 38.7743 214.155 38.7743C218.968 38.7743 223.215 39.9074 226.895 42.1737C230.575 44.3691 233.407 47.5561 235.388 51.7345C237.441 55.913 238.467 60.835 238.467 66.5007V102.513H219.57V69.6876C219.57 64.9426 218.614 61.3308 216.703 58.852C214.863 56.3025 212.174 55.0277 208.635 55.0277C204.955 55.0277 202.053 56.4087 199.93 59.1707C197.806 61.9327 196.745 65.7216 196.745 70.5374V102.513H177.848V40.2615ZM274.605 104C269.792 104 265.546 102.867 261.866 100.601C258.186 98.4057 255.319 95.2188 253.267 91.0401C251.285 86.8614 250.294 81.9396 250.294 76.2739V40.2615H269.191V73.087C269.191 77.832 270.111 81.4793 271.951 84.0288C273.862 86.5078 276.587 87.7469 280.126 87.7469C283.806 87.7469 286.708 86.3659 288.831 83.6039C290.955 80.8419 292.016 77.053 292.016 72.2372V40.2615H310.913V102.513H292.016V96.1392C288.124 101.38 282.32 104 274.605 104ZM325.17 40.2615H344.067V46.2105C345.978 43.6609 348.137 41.7842 350.543 40.5802C353.02 39.3762 355.957 38.7743 359.355 38.7743C363.247 38.7743 366.786 39.5534 369.971 41.1114C373.156 42.5986 375.774 44.794 377.827 47.6977C380.163 44.7233 383.029 42.4924 386.426 41.0052C389.823 39.5179 393.858 38.7743 398.529 38.7743C403.27 38.7743 407.446 39.9074 411.056 42.1737C414.666 44.3691 417.462 47.5561 419.443 51.7345C421.424 55.913 422.416 60.835 422.416 66.5007V102.513H403.518V69.6876C403.518 64.9426 402.633 61.3308 400.864 58.852C399.095 56.3025 396.476 55.0277 393.008 55.0277C389.965 55.0277 387.594 56.1962 385.895 58.5333C384.267 60.8704 383.383 64.2698 383.241 68.7315V102.513H364.344V69.6876C364.344 64.9426 363.459 61.3308 361.69 58.852C359.921 56.3025 357.302 55.0277 353.834 55.0277C350.791 55.0277 348.42 56.1962 346.721 58.5333C345.093 60.8704 344.209 64.2698 344.067 68.7315V102.513H325.17V40.2615Z"
            fill="black" />
        <path
            d="M442.985 29.0476C451.002 29.0476 457.5 22.5451 457.5 14.5238C457.5 6.50253 451.002 0 442.985 0C434.969 0 428.471 6.50253 428.471 14.5238C428.471 22.5451 434.969 29.0476 442.985 29.0476Z"
            fill="black" />
    </g>
</svg>